<svg xmlns="http://www.w3.org/2000/svg" viewBox="0 0 40.41 26.6">
  <path fill="#7d06c5" d="M40,24.66a1.23,1.23,0,0,1-1.76,0l-6.9-6.89,5.32-5.32L35,10.7a1.25,1.25,0,0,1,1.77-1.76l3.51,3.51-5.31,5.32L40,22.9A1.24,1.24,0,0,1,40,24.66ZM20.65,17.77,26,12.45,22.45,8.94a1.25,1.25,0,1,0-1.77,1.76l1.75,1.75-5.32,5.32L24,24.66a1.23,1.23,0,0,0,1.76,0,1.24,1.24,0,0,0,0-1.76Zm9.11-8.33,7.31-7.31A1.25,1.25,0,1,0,35.3.37L26.23,9.44l3,3-2.88,2.87a1.25,1.25,0,0,0,0,1.77,1.24,1.24,0,0,0,1.77,0l4.64-4.64Zm-14,0,7.31-7.31A1.25,1.25,0,1,0,21.3.37L12.23,9.44l3,3-2.88,2.87a1.25,1.25,0,0,0,0,1.77,1.24,1.24,0,0,0,1.77,0l4.64-4.64Zm-5,4.21A1.25,1.25,0,0,0,9,11.87L5.5,15.32,2.14,11.94A1.25,1.25,0,0,0,.36,13.7l7.38,7.43L4.48,24.48a1.25,1.25,0,0,0,0,1.77,1.26,1.26,0,0,0,1.77,0l5-5.11-4-4Z"/>
</svg>
